<svg width="80" height="20" viewBox="0 0 80 20" fill="none" xmlns="http://www.w3.org/2000/svg">
<g clip-path="url(#clip0_2222_711)">
<path d="M33.3606 5.8501C31.3379 5.8501 29.9988 6.71852 29.36 7.99186V6.21239H25.5388V7.59228C25.5388 7.59228 25.9086 7.59228 26.1887 7.59228C26.5081 7.59228 26.9059 7.56031 27.1749 7.71482C27.399 7.84268 27.511 7.9812 27.5839 8.17833C27.6679 8.4021 27.6847 8.56726 27.6847 8.91889V16.4044C27.6847 16.7773 27.6287 17.081 27.5166 17.3048C27.4046 17.5339 27.2589 17.7044 27.074 17.8269C26.8891 17.9495 26.6706 18.0294 26.4184 18.0667C26.1663 18.104 25.8974 18.1253 25.6116 18.1253H25.4043V19.1322H31.6853V18.1253H31.6124C31.3323 18.1253 31.069 18.1093 30.8168 18.072C30.5647 18.0347 30.3462 17.9654 30.1557 17.8536C29.9652 17.7417 29.8195 17.5818 29.7074 17.3687C29.5954 17.1556 29.5393 16.8732 29.5393 16.5216V11.4602C29.5393 10.9434 29.5898 10.4533 29.6906 9.98444C29.7915 9.5156 29.9652 9.10003 30.2005 8.74307C30.4414 8.38611 30.7552 8.09841 31.1418 7.8853C31.534 7.67219 31.971 7.54966 32.3857 7.53367C33.0636 7.51236 33.5063 7.60826 33.8593 7.75744C34.2123 7.90129 34.5204 8.14104 34.7389 8.42341C34.9575 8.70578 35.1143 9.04676 35.2152 9.457L36.9858 8.79102L37.4844 8.61521C36.9858 7.01155 35.5458 5.85543 33.3606 5.85543" fill="#EAEAEA"/>
<path d="M22.4458 18.0666C22.1937 18.0293 21.9696 17.9494 21.7847 17.8269C21.5998 17.7043 21.4541 17.5338 21.342 17.3048C21.23 17.0757 21.1739 16.7773 21.1739 16.4044V6.26562H16.6635V7.44306H16.7363C17.0165 7.44306 17.2798 7.46437 17.532 7.50167C17.7841 7.53896 18.0026 7.61888 18.1931 7.73609C18.3836 7.8533 18.5293 8.01846 18.6414 8.23157C18.7534 8.44468 18.8095 8.72705 18.8095 9.07869V16.5109C18.8095 16.8626 18.7534 17.1449 18.6414 17.358C18.5293 17.5711 18.378 17.7363 18.1931 17.8429C18.0026 17.9547 17.7841 18.024 17.532 18.0613C17.2798 18.0986 17.0165 18.1146 16.7363 18.1146H16.4058V19.1215H23.5776V18.1146H23.2471C22.9669 18.1146 22.698 18.0933 22.4458 18.056" fill="#EAEAEA"/>
<path d="M60.3839 6.28125C56.7587 6.28125 53.8228 9.073 53.8228 12.5201C53.8228 15.9671 56.7587 18.7589 60.3839 18.7589C64.0091 18.7589 66.945 15.9671 66.945 12.5201C66.945 9.073 64.0091 6.28125 60.3839 6.28125ZM60.3839 14.3155C59.3417 14.3155 58.4957 13.511 58.4957 12.5201C58.4957 11.5291 59.3417 10.7246 60.3839 10.7246C61.4261 10.7246 62.2721 11.5291 62.2721 12.5201C62.2721 13.511 61.4261 14.3155 60.3839 14.3155Z" fill="#EAEAEA"/>
<path d="M14.2763 18.1249C14.0914 18.1249 13.9233 18.1143 13.7552 18.0983C13.7103 18.0876 13.6543 18.0823 13.5759 18.0663C13.3237 18.029 13.0996 17.9491 12.9147 17.8266C12.769 17.7307 12.6458 17.5975 12.5449 17.4376C12.5225 17.395 12.5001 17.3524 12.4833 17.3098C12.388 17.0807 12.3432 16.7823 12.3432 16.4094V10.7406C12.3432 9.92015 12.248 9.21156 12.0519 8.62018C11.8613 8.02879 11.5812 7.53864 11.2114 7.16037C10.8472 6.7821 10.4046 6.49973 9.88348 6.31858C9.3624 6.13744 8.78529 6.03088 8.10172 6.00957C7.50219 5.98826 6.99232 6.00957 6.53287 6.10014C6.10144 6.18539 5.8437 6.29727 5.51872 6.4571C5.19375 6.61694 4.88558 6.8407 4.59422 7.12307C4.37571 7.33618 4.16279 7.60257 3.95548 7.90626C3.87143 7.62921 3.72015 7.2243 3.45121 6.89931C2.80686 6.1108 2.08967 6.21735 0.756152 6.21735H0.134216V7.59725C0.134216 7.59725 0.504016 7.59725 0.784167 7.59725C1.10354 7.59725 1.50135 7.56528 1.7703 7.71978C1.99442 7.84765 2.10648 7.98617 2.17372 8.1833C2.25776 8.40707 2.27457 8.57223 2.27457 8.92386V16.4094C2.27457 16.7823 2.21854 17.086 2.10648 17.3098C1.99442 17.5389 1.84874 17.7093 1.66384 17.8319C1.47894 17.9544 1.26042 18.0343 1.00829 18.0716C0.756152 18.1089 0.487207 18.1302 0.201453 18.1302H-0.00585938V19.1372H6.27513V18.1302H6.20229C5.92214 18.1302 5.6588 18.1143 5.40666 18.077C5.15453 18.0397 4.93601 17.9704 4.74551 17.8585C4.555 17.7466 4.40933 17.5868 4.29726 17.3737C4.1852 17.1606 4.12917 16.8782 4.12917 16.5266V11.4652C4.12917 10.9484 4.1796 10.4583 4.28046 9.98941C4.38131 9.52057 4.555 9.105 4.79033 8.74804C5.02566 8.39108 5.34503 8.10338 5.73164 7.8956C6.12385 7.68249 6.56089 7.55995 6.97551 7.54397C7.65348 7.52266 8.09612 7.61856 8.44911 7.76773C8.8021 7.91158 9.11026 8.15133 9.32878 8.4337C9.5473 8.71608 9.70418 9.05705 9.80504 9.46729C9.90589 9.8722 9.95072 10.3357 9.95072 10.8632V16.5426C9.95072 16.8889 9.87227 17.1712 9.76021 17.3844C9.64815 17.5975 9.49687 17.7626 9.31197 17.8692C9.12147 17.9811 8.90295 18.0503 8.65082 18.0876C8.39868 18.1249 8.38747 18.1409 8.11292 18.1409H7.78235V19.1478H14.4443V18.1409H14.265L14.2763 18.1249Z" fill="#EAEAEA"/>
<path d="M19.7168 3.58554C20.759 3.58554 21.6051 2.78105 21.6051 1.79009C21.6051 0.799121 20.759 -0.00537109 19.7168 -0.00537109C18.6747 -0.00537109 17.8286 0.799121 17.8286 1.79009C17.8286 2.78105 18.6747 3.58554 19.7168 3.58554Z" fill="#EAEAEA"/>
<path d="M52.8588 18.1249C52.6739 18.1249 52.5058 18.1143 52.3377 18.0983C52.2929 18.0876 52.2368 18.0823 52.1584 18.0663C51.9063 18.029 51.6821 17.9491 51.4972 17.8266C51.3516 17.7307 51.2283 17.5975 51.1274 17.4376C51.105 17.395 51.0826 17.3524 51.0658 17.3098C50.9706 17.0807 50.9257 16.7823 50.9257 16.4094V10.7406C50.9257 9.92015 50.8305 9.21156 50.6344 8.62018C50.4439 8.02879 50.1637 7.53864 49.7939 7.16037C49.4297 6.7821 48.9871 6.49973 48.466 6.31858C47.9449 6.13744 47.3678 6.03088 46.6842 6.00957C46.0847 5.98826 45.5748 6.00957 45.1154 6.10014C44.684 6.18539 44.4262 6.29727 44.1012 6.4571C43.7763 6.61694 43.4681 6.8407 43.1767 7.12307C42.9582 7.33618 42.7453 7.60257 42.538 7.90626C42.454 7.62921 42.3027 7.2243 42.0337 6.89931C41.3894 6.1108 40.6722 6.21735 39.3387 6.21735H38.7111V7.59725C38.7111 7.59725 39.0809 7.59725 39.3611 7.59725C39.6805 7.59725 40.0783 7.56528 40.3472 7.71978C40.5713 7.84765 40.6834 7.98617 40.7506 8.1833C40.8347 8.40707 40.8515 8.57223 40.8515 8.92386V16.4094C40.8515 16.7823 40.7955 17.086 40.6834 17.3098C40.5713 17.5389 40.4257 17.7093 40.2408 17.8319C40.0559 17.9544 39.8373 18.0343 39.5908 18.0716C39.3387 18.1089 39.0697 18.1302 38.784 18.1302H38.5767V19.1372H44.8576V18.1302H44.7848C44.5047 18.1302 44.2413 18.1143 43.9892 18.077C43.737 18.0397 43.5185 17.9704 43.328 17.8585C43.1375 17.7466 42.9918 17.5868 42.8798 17.3737C42.7677 17.1606 42.7117 16.8782 42.7117 16.5266V11.4652C42.7117 10.9484 42.7621 10.4583 42.863 9.98941C42.9638 9.52057 43.1375 9.105 43.3729 8.74804C43.6082 8.39108 43.9275 8.10338 44.3142 7.8956C44.7064 7.68249 45.1434 7.55995 45.558 7.54397C46.236 7.52266 46.6786 7.61856 47.0316 7.76773C47.3846 7.91158 47.6928 8.15133 47.9113 8.4337C48.1298 8.71608 48.2867 9.05705 48.3876 9.46729C48.4884 9.8722 48.5332 10.3357 48.5332 10.8632V16.5426C48.5332 16.8889 48.4548 17.1712 48.3427 17.3844C48.2307 17.5975 48.0794 17.7626 47.8945 17.8692C47.704 17.9811 47.4855 18.0503 47.2333 18.0876C46.9812 18.1249 46.9756 18.1409 46.6954 18.1409H46.3649V19.1478H53.0269V18.1409H52.8476L52.8588 18.1249Z" fill="#EAEAEA"/>
<path d="M75.8762 5.8501C73.8535 5.8501 72.5144 6.71852 71.8757 7.99186V6.21239H68.0544V7.59228C68.0544 7.59228 68.4242 7.59228 68.7043 7.59228C69.0237 7.59228 69.4215 7.56031 69.6905 7.71482C69.9146 7.84268 70.0267 7.9812 70.0995 8.17833C70.1835 8.4021 70.2004 8.56726 70.2004 8.91889V16.4044C70.2004 16.7773 70.1443 17.081 70.0323 17.3048C69.9202 17.5339 69.7745 17.7044 69.5896 17.8269C69.4047 17.9495 69.1862 18.0294 68.9341 18.0667C68.6819 18.104 68.413 18.1253 68.1272 18.1253H67.9199V19.1322H74.2009V18.1253H74.1281C73.8479 18.1253 73.5846 18.1093 73.3324 18.072C73.0803 18.0347 72.8618 17.9654 72.6713 17.8536C72.4808 17.7417 72.3351 17.5818 72.223 17.3687C72.111 17.1556 72.055 16.8732 72.055 16.5216V11.4602C72.055 10.9434 72.1054 10.4533 72.2062 9.98444C72.3071 9.5156 72.4808 9.10003 72.7161 8.74307C72.957 8.38611 73.2708 8.09841 73.6574 7.8853C74.0496 7.67219 74.4867 7.54966 74.9013 7.53367C75.5793 7.51236 76.0219 7.60826 76.3749 7.75744C76.7279 7.90129 77.036 8.14104 77.2546 8.42341C77.4731 8.70578 77.63 9.04676 77.7308 9.457L79.5014 8.79102L80 8.61521C79.5014 7.01155 78.0614 5.85543 75.8762 5.85543" fill="#EAEAEA"/>
</g>
<defs>
<clipPath id="clip0_2222_711">
<rect width="80" height="19.132" fill="white"/>
</clipPath>
</defs>
</svg>
