<svg width="113" height="27" viewBox="0 0 113 27" fill="none" xmlns="http://www.w3.org/2000/svg">
<g clip-path="url(#clip0_2069_306)">
<path d="M46.7099 8.19092C43.8778 8.19092 42.0028 9.40685 41.1084 11.1897V8.69818H35.758V10.6302C35.758 10.6302 36.2758 10.6302 36.6681 10.6302C37.1153 10.6302 37.6723 10.5855 38.0488 10.8018C38.3626 10.9809 38.5195 11.1748 38.6215 11.4508C38.7392 11.7641 38.7627 11.9954 38.7627 12.4877V22.9686C38.7627 23.4908 38.6843 23.916 38.5274 24.2293C38.3705 24.5501 38.1665 24.7888 37.9076 24.9604C37.6487 25.132 37.3428 25.2439 36.9897 25.2961C36.6367 25.3483 36.2601 25.3781 35.86 25.3781H35.5698V26.788H44.3642V25.3781H44.2622C43.8699 25.3781 43.5012 25.3557 43.1482 25.3035C42.7951 25.2513 42.4892 25.1543 42.2224 24.9977C41.9557 24.841 41.7517 24.6172 41.5948 24.3188C41.4379 24.0205 41.3595 23.6251 41.3595 23.1328V16.046C41.3595 15.3224 41.4301 14.6361 41.5713 13.9797C41.7125 13.3232 41.9557 12.7414 42.2852 12.2416C42.6225 11.7417 43.0619 11.3389 43.6032 11.0405C44.1523 10.7421 44.7643 10.5706 45.3448 10.5482C46.2941 10.5184 46.9138 10.6526 47.4081 10.8615C47.9023 11.0629 48.3338 11.3986 48.6398 11.794C48.9457 12.1893 49.1654 12.6668 49.3066 13.2412L51.7857 12.3087L52.4839 12.0625C51.7857 9.81714 49.7695 8.19838 46.7099 8.19838" fill="#251E1C"/>
<path d="M31.4277 25.2958C31.0747 25.2435 30.7609 25.1316 30.502 24.9601C30.2431 24.7885 30.0391 24.5498 29.8822 24.229C29.7253 23.9082 29.6469 23.4905 29.6469 22.9683V8.77246H23.3315V10.4211H23.4335C23.8258 10.4211 24.1945 10.4509 24.5475 10.5031C24.9005 10.5553 25.2065 10.6672 25.4732 10.8313C25.74 10.9955 25.9439 11.2267 26.1009 11.5251C26.2578 11.8235 26.3362 12.2189 26.3362 12.7112V23.1175C26.3362 23.6099 26.2578 24.0052 26.1009 24.3036C25.9439 24.602 25.7321 24.8333 25.4732 24.9825C25.2065 25.1391 24.9005 25.2361 24.5475 25.2883C24.1945 25.3405 23.8258 25.3629 23.4335 25.3629H22.9706V26.7728H33.0124V25.3629H32.5496C32.1573 25.3629 31.7807 25.3331 31.4277 25.2808" fill="#251E1C"/>
<path d="M84.547 8.79492C79.4712 8.79492 75.3604 12.7038 75.3604 17.5303C75.3604 22.3567 79.4712 26.2656 84.547 26.2656C89.6228 26.2656 93.7337 22.3567 93.7337 17.5303C93.7337 12.7038 89.6228 8.79492 84.547 8.79492ZM84.547 20.0442C83.0878 20.0442 81.9032 18.9178 81.9032 17.5303C81.9032 16.1428 83.0878 15.0163 84.547 15.0163C86.0062 15.0163 87.1908 16.1428 87.1908 17.5303C87.1908 18.9178 86.0062 20.0442 84.547 20.0442Z" fill="#251E1C"/>
<path d="M19.9894 25.3779C19.7305 25.3779 19.4951 25.363 19.2598 25.3406C19.197 25.3257 19.1186 25.3182 19.0087 25.2958C18.6557 25.2436 18.3419 25.1317 18.083 24.9601C17.879 24.8259 17.7064 24.6394 17.5652 24.4156C17.5338 24.3559 17.5025 24.2962 17.4789 24.2366C17.3456 23.9158 17.2828 23.498 17.2828 22.9759V15.0387C17.2828 13.8899 17.1494 12.8978 16.8749 12.0697C16.6081 11.2417 16.2159 10.5554 15.6981 10.0258C15.1882 9.49613 14.5684 9.10077 13.8388 8.84714C13.1092 8.59351 12.3011 8.44431 11.344 8.41447C10.5046 8.38464 9.7907 8.41447 9.1474 8.54129C8.54332 8.66065 8.18245 8.8173 7.72743 9.04109C7.27241 9.26488 6.84093 9.57819 6.43298 9.97356C6.12702 10.2719 5.82891 10.6449 5.53864 11.0701C5.42096 10.6822 5.20914 10.1153 4.83257 9.66025C3.93038 8.55621 2.92621 8.7054 1.05906 8.7054H0.188255V10.6375C0.188255 10.6375 0.706034 10.6375 1.09829 10.6375C1.54546 10.6375 2.10247 10.5927 2.47903 10.809C2.79284 10.9881 2.94974 11.182 3.04388 11.458C3.16156 11.7714 3.1851 12.0026 3.1851 12.4949V22.9759C3.1851 23.498 3.10664 23.9233 2.94974 24.2366C2.79284 24.5573 2.58887 24.796 2.32998 24.9676C2.07109 25.1392 1.76513 25.2511 1.4121 25.3033C1.05906 25.3555 0.682498 25.3854 0.282396 25.3854H-0.00787354V26.7952H8.78652V25.3854H8.68454C8.29228 25.3854 7.92356 25.363 7.57053 25.3108C7.2175 25.2585 6.91154 25.1616 6.6448 25.0049C6.37807 24.8483 6.17409 24.6245 6.01719 24.3261C5.86029 24.0277 5.78184 23.6323 5.78184 23.14V16.0532C5.78184 15.3296 5.85244 14.6433 5.99365 13.9869C6.13487 13.3304 6.37807 12.7486 6.70756 12.2488C7.03706 11.749 7.48423 11.3461 8.02554 11.0552C8.5747 10.7568 9.18662 10.5853 9.76716 10.5629C10.7164 10.533 11.3362 10.6673 11.8304 10.8762C12.3247 11.0776 12.7562 11.4133 13.0621 11.8087C13.3681 12.204 13.5877 12.6814 13.729 13.2558C13.8702 13.8228 13.9329 14.4718 13.9329 15.2103V23.1624C13.9329 23.6472 13.8231 24.0426 13.6662 24.341C13.5093 24.6394 13.2975 24.8706 13.0386 25.0198C12.7719 25.1765 12.4659 25.2735 12.1129 25.3257C11.7598 25.3779 11.7441 25.4003 11.3597 25.4003H10.8969V26.8102H20.2247V25.4003H19.9737L19.9894 25.3779Z" fill="#251E1C"/>
<path d="M27.607 5.02053C29.0662 5.02053 30.2508 3.89411 30.2508 2.5066C30.2508 1.11909 29.0662 -0.00732422 27.607 -0.00732422C26.1478 -0.00732422 24.9632 1.11909 24.9632 2.5066C24.9632 3.89411 26.1478 5.02053 27.607 5.02053Z" fill="#251E1C"/>
<path d="M74.011 25.3779C73.7521 25.3779 73.5167 25.363 73.2814 25.3406C73.2186 25.3257 73.1402 25.3182 73.0303 25.2958C72.6773 25.2436 72.3635 25.1317 72.1046 24.9601C71.9006 24.8259 71.728 24.6394 71.5868 24.4156C71.5555 24.3559 71.5241 24.2962 71.5005 24.2366C71.3672 23.9158 71.3044 23.498 71.3044 22.9759V15.0387C71.3044 13.8899 71.171 12.8978 70.8965 12.0697C70.6297 11.2417 70.2375 10.5554 69.7197 10.0258C69.2098 9.49613 68.59 9.10077 67.8604 8.84714C67.1308 8.59351 66.3227 8.44431 65.3656 8.41447C64.5262 8.38464 63.8123 8.41447 63.169 8.54129C62.5649 8.66065 62.2041 8.8173 61.749 9.04109C61.294 9.26488 60.8625 9.57819 60.4546 9.97356C60.1486 10.2719 59.8505 10.6449 59.5602 11.0701C59.4426 10.6822 59.2307 10.1153 58.8542 9.66025C57.952 8.55621 56.9478 8.7054 55.0807 8.7054H54.202V10.6375C54.202 10.6375 54.7198 10.6375 55.1121 10.6375C55.5592 10.6375 56.1162 10.5927 56.4928 10.809C56.8066 10.9881 56.9635 11.182 57.0576 11.458C57.1753 11.7714 57.1989 12.0026 57.1989 12.4949V22.9759C57.1989 23.498 57.1204 23.9233 56.9635 24.2366C56.8066 24.5573 56.6026 24.796 56.3437 24.9676C56.0848 25.1392 55.7789 25.2511 55.4337 25.3033C55.0807 25.3555 54.7041 25.3854 54.304 25.3854H54.0137V26.7952H62.8081V25.3854H62.7061C62.3139 25.3854 61.9452 25.363 61.5921 25.3108C61.2391 25.2585 60.9331 25.1616 60.6664 25.0049C60.3997 24.8483 60.1957 24.6245 60.0388 24.3261C59.8819 24.0277 59.8034 23.6323 59.8034 23.14V16.0532C59.8034 15.3296 59.874 14.6433 60.0153 13.9869C60.1565 13.3304 60.3997 12.7486 60.7292 12.2488C61.0587 11.749 61.5058 11.3461 62.0471 11.0552C62.5963 10.7568 63.2082 10.5853 63.7888 10.5629C64.738 10.533 65.3578 10.6673 65.852 10.8762C66.3463 11.0776 66.7778 11.4133 67.0837 11.8087C67.3897 12.204 67.6094 12.6814 67.7506 13.2558C67.8918 13.8228 67.9545 14.4718 67.9545 15.2103V23.1624C67.9545 23.6472 67.8447 24.0426 67.6878 24.341C67.5309 24.6394 67.3191 24.8706 67.0602 25.0198C66.7935 25.1765 66.4875 25.2735 66.1345 25.3257C65.7814 25.3779 65.7736 25.4003 65.3813 25.4003H64.9185V26.8102H74.2463V25.4003H73.9953L74.011 25.3779Z" fill="#251E1C"/>
<path d="M106.239 8.19092C103.407 8.19092 101.532 9.40685 100.637 11.1897V8.69818H95.2869V10.6302C95.2869 10.6302 95.8047 10.6302 96.197 10.6302C96.6442 10.6302 97.2012 10.5855 97.5777 10.8018C97.8915 10.9809 98.0484 11.1748 98.1504 11.4508C98.2681 11.7641 98.2916 11.9954 98.2916 12.4877V22.9686C98.2916 23.4908 98.2132 23.916 98.0563 24.2293C97.8994 24.5501 97.6954 24.7888 97.4365 24.9604C97.1776 25.132 96.8717 25.2439 96.5186 25.2961C96.1656 25.3483 95.789 25.3781 95.3889 25.3781H95.0987V26.788H103.893V25.3781H103.791C103.399 25.3781 103.03 25.3557 102.677 25.3035C102.324 25.2513 102.018 25.1543 101.751 24.9977C101.485 24.841 101.281 24.6172 101.124 24.3188C100.967 24.0205 100.888 23.6251 100.888 23.1328V16.046C100.888 15.3224 100.959 14.6361 101.1 13.9797C101.241 13.3232 101.485 12.7414 101.814 12.2416C102.151 11.7417 102.591 11.3389 103.132 11.0405C103.681 10.7421 104.293 10.5706 104.874 10.5482C105.823 10.5184 106.443 10.6526 106.937 10.8615C107.431 11.0629 107.863 11.3986 108.169 11.794C108.475 12.1893 108.694 12.6668 108.835 13.2412L111.315 12.3087L112.013 12.0625C111.315 9.81714 109.298 8.19838 106.239 8.19838" fill="#251E1C"/>
</g>
<defs>
<clipPath id="clip0_2069_306">
<rect width="112.013" height="26.7879" fill="white"/>
</clipPath>
</defs>
</svg>
